<svg width="25" height="29" viewBox="0 0 25 29" fill="none" xmlns="http://www.w3.org/2000/svg">
<g clip-path="url(#clip0_14_274)">
<path d="M9.51866 26.1666C10.0887 26.1666 10.5508 25.6443 10.5508 24.9999C10.5508 24.3556 10.0887 23.8333 9.51866 23.8333C8.94865 23.8333 8.48657 24.3556 8.48657 24.9999C8.48657 25.6443 8.94865 26.1666 9.51866 26.1666Z" stroke="#3D3D3D" stroke-width="2" stroke-linecap="round" stroke-linejoin="round"/>
<path d="M20.8717 26.1666C21.4417 26.1666 21.9037 25.6443 21.9037 24.9999C21.9037 24.3556 21.4417 23.8333 20.8717 23.8333C20.3017 23.8333 19.8396 24.3556 19.8396 24.9999C19.8396 25.6443 20.3017 26.1666 20.8717 26.1666Z" stroke="#3D3D3D" stroke-width="2" stroke-linecap="round" stroke-linejoin="round"/>
<path d="M1.26196 1.66675H5.39032L8.15632 17.2884C8.2507 17.8255 8.5092 18.308 8.88657 18.6514C9.26394 18.9948 9.73614 19.1772 10.2205 19.1667H20.2524C20.7368 19.1772 21.209 18.9948 21.5863 18.6514C21.9637 18.308 22.2222 17.8255 22.3166 17.2884L23.9679 7.50008H6.42241" stroke="#3D3D3D" stroke-width="2" stroke-linecap="round" stroke-linejoin="round"/>
</g>
<defs>
<clipPath id="clip0_14_274">
<rect width="24.7701" height="28" fill="white" transform="translate(0.229858 0.5)"/>
</clipPath>
</defs>
</svg>
